<?xml version="1.0" encoding="UTF-8"?>
<svg width="38px" height="38px" viewBox="0 0 38 38" version="1.1" xmlns="http://www.w3.org/2000/svg" xmlns:xlink="http://www.w3.org/1999/xlink">
    <!-- Generator: Sketch 54.1 (76490) - https://sketchapp.com -->
    <title>Facebook@1x</title>
    <desc>Created with Sketch.</desc>
    <g id="Symbols" stroke="none" stroke-width="1" fill="none" fill-rule="evenodd">
        <g id="Icons-/-Facebook" transform="translate(-5.000000, -5.000000)">
            <g id="Facebook" transform="translate(5.000000, 5.000000)">
                <polygon id="Rectangle-3-Copy-2" fill="#FFD9D4" points="30.4082273 33.7267619 30.4082273 4.22222222 38 4.22222222 38 38 4.22222222 38 4.22222222 33.7267619"></polygon>
                <path d="M18.0418055,33.7777778 L1.86427403,33.7777778 C0.83436224,33.7777778 0,32.9428978 0,31.9133871 L0,1.86425957 C0,0.834486829 0.834493305,0 1.86427403,0 L31.9136348,0 C32.9431534,0 33.7777778,0.834486829 33.7777778,1.86425957 L33.7777778,31.9133871 C33.7777778,32.9430288 32.9430223,33.7777778 31.9136348,33.7777778 L23.3061778,33.7777778 L23.3061778,20.6971607 L27.6967371,20.6971607 L28.3541611,15.5994121 L23.3061778,15.5994121 L23.3061778,12.3448217 C23.3061778,10.8689059 23.7160193,9.86311793 25.8324631,9.86311793 L28.5318858,9.86193835 L28.5318858,5.30247112 C28.0650308,5.24034661 26.4626255,5.10154945 24.5983514,5.10154945 C20.7063648,5.10154945 18.0418055,7.47722218 18.0418055,11.8399618 L18.0418055,15.5994121 L13.6399746,15.5994121 L13.6399746,20.6971607 L18.0418055,20.6971607 L18.0418055,33.7777778 L18.0418055,33.7777778 Z" id="Icons-/-Facebook" fill="#044A75"></path>
            </g>
        </g>
    </g>
</svg>