<?xml version="1.0" encoding="UTF-8"?> <svg xmlns="http://www.w3.org/2000/svg" viewBox="0 0 102 102"><g fill="none" fill-rule="evenodd" transform="translate(1 1)"><g transform="translate(21.583 35.5)"><path fill="#FFD9D4" d="M13.301 13.115H53.073a3.76 3.76 0 0 1 3.76 3.76v5.596a3.76 3.76 0 0 1-3.76 3.76h-3.495c0 2.634-2.166 4.769-4.837 4.769s-4.837-2.135-4.837-4.77H20.557c0 2.635-2.166 4.77-4.837 4.77s-4.837-2.135-4.837-4.77H3.628v-9.355a3.76 3.76 0 0 1 3.76-3.76H13.3z"></path><path fill="#044A75" d="M3.76 9.538h45.686a3.76 3.76 0 0 1 3.76 3.76v5.596a3.76 3.76 0 0 1-3.76 3.76H0v-9.356a3.76 3.76 0 0 1 3.76-3.76z"></path><ellipse cx="12.092" cy="22.654" fill="#044A75" stroke="#FFF" stroke-linecap="round" stroke-linejoin="round" stroke-width="1.88" rx="4.837" ry="4.769"></ellipse><ellipse cx="41.113" cy="22.654" fill="#044A75" stroke="#FFF" stroke-linecap="round" stroke-linejoin="round" stroke-width="1.88" rx="4.837" ry="4.769"></ellipse><path fill="#0092FF" d="M22.975 0v9.538H9.674l3.792-7.479A3.76 3.76 0 0 1 16.82 0h6.155zm2.419 0h8.573a3.76 3.76 0 0 1 3.354 2.06l3.792 7.478h-15.72V0z"></path></g><circle cx="50" cy="50" r="50" stroke="#091E3F" opacity=".2"></circle></g></svg> 