<?xml version="1.0" encoding="UTF-8"?>
<svg width="40px" height="32px" viewBox="0 0 40 32" version="1.1" xmlns="http://www.w3.org/2000/svg" xmlns:xlink="http://www.w3.org/1999/xlink">
    <!-- Generator: Sketch 54.1 (76490) - https://sketchapp.com -->
    <title>landing@1x</title>
    <desc>Created with Sketch.</desc>
    <g id="Symbols" stroke="none" stroke-width="1" fill="none" fill-rule="evenodd">
        <g id="Icons-/-Landing" transform="translate(-4.000000, -8.000000)">
            <g id="landing" transform="translate(4.000000, 8.000000)">
                <path d="M3.33333333,5.51724138 L40,5.51724138 L40,32 L3.33333333,32 L3.33333333,5.51724138 Z M7.77011494,8.82758621 C7.16069729,8.82758621 6.66666667,9.32161683 6.66666667,9.93103448 C6.66666667,10.5404521 7.16069729,11.0344828 7.77011494,11.0344828 L7.78544061,11.0344828 C8.39485827,11.0344828 8.88888889,10.5404521 8.88888889,9.93103448 C8.88888889,9.32161683 8.39485827,8.82758621 7.78544061,8.82758621 L7.77011494,8.82758621 Z M12.2145594,8.82758621 C11.6051417,8.82758621 11.1111111,9.32161683 11.1111111,9.93103448 C11.1111111,10.5404521 11.6051417,11.0344828 12.2145594,11.0344828 L12.2298851,11.0344828 C12.8393027,11.0344828 13.3333333,10.5404521 13.3333333,9.93103448 C13.3333333,9.32161683 12.8393027,8.82758621 12.2298851,8.82758621 L12.2145594,8.82758621 Z M17.7701149,8.82758621 C17.1606973,8.82758621 16.6666667,9.32161683 16.6666667,9.93103448 C16.6666667,10.5404521 17.1606973,11.0344828 17.7701149,11.0344828 L17.7854406,11.0344828 C18.3948583,11.0344828 18.8888889,10.5404521 18.8888889,9.93103448 C18.8888889,9.32161683 18.3948583,8.82758621 17.7854406,8.82758621 L17.7701149,8.82758621 Z" id="Rectangle-3" fill="#FFD9D4"></path>
                <path d="M1.03739239e-12,1.29674049e-13 L36.5633745,1.29674049e-13 L36.5633745,29.2350739 L1.03739239e-12,29.2350739 L1.03739239e-12,1.29674049e-13 Z M4.63717083,3.02187192 C4.11481284,3.02187192 3.69135802,3.44532674 3.69135802,3.96768473 C3.69135802,4.49004272 4.11481284,4.91349754 4.63717083,4.91349754 L4.63854933,4.91349754 C5.16090732,4.91349754 5.58436214,4.49004272 5.58436214,3.96768473 C5.58436214,3.44532674 5.16090732,3.02187192 4.63854933,3.02187192 L4.63717083,3.02187192 Z M9.36968112,3.02187192 C8.84732313,3.02187192 8.42386831,3.44532674 8.42386831,3.96768473 C8.42386831,4.49004272 8.84732313,4.91349754 9.36968112,4.91349754 L9.37105962,4.91349754 C9.89341761,4.91349754 10.3168724,4.49004272 10.3168724,3.96768473 C10.3168724,3.44532674 9.89341761,3.02187192 9.37105962,3.02187192 L9.36968112,3.02187192 Z M14.1021914,3.02187192 C13.5798334,3.02187192 13.1563786,3.44532674 13.1563786,3.96768473 C13.1563786,4.49004272 13.5798334,4.91349754 14.1021914,4.91349754 L14.1035699,4.91349754 C14.6259279,4.91349754 15.0493827,4.49004272 15.0493827,3.96768473 C15.0493827,3.44532674 14.6259279,3.02187192 14.1035699,3.02187192 L14.1021914,3.02187192 Z" id="Rectangle-3-Copy" fill="#044A75"></path>
                <rect id="Rectangle" fill="#0092FF" fill-rule="nonzero" x="12.2222222" y="9.93103448" width="12.2222222" height="12.137931" rx="6.06896552"></rect>
            </g>
        </g>
    </g>
</svg>