<?xml version="1.0" encoding="UTF-8"?>
<svg width="44px" height="40px" viewBox="0 0 44 40" version="1.1" xmlns="http://www.w3.org/2000/svg" xmlns:xlink="http://www.w3.org/1999/xlink">
    <!-- Generator: Sketch 54.1 (76490) - https://sketchapp.com -->
    <title>transactionmail@1x</title>
    <desc>Created with Sketch.</desc>
    <g id="Symbols" stroke="none" stroke-width="1" fill="none" fill-rule="evenodd">
        <g id="Icons-/-Transactional" transform="translate(-2.000000, -4.000000)">
            <g id="transactionmail" transform="translate(2.000000, 4.000000)">
                <path d="M28.7524759,26.5473016 L36.5619222,26.5473016 L30.86931,34.6733328 L28.0672946,34.6367332 L14.3355354,34.552381 L14.3355354,39.1746032 L5.43012704,30.9257143 L9.60873909,27.0450794 L14.3355354,22.6666667 L14.3355354,26.5473016 L28.7524759,26.5473016 Z" id="Path-14-Copy-2" fill="#FFD9D4" transform="translate(20.996025, 30.920635) scale(1, -1) translate(-20.996025, -30.920635) "></path>
                <path d="M36.0991183,7.88063492 L43.9085647,7.88063492 L38.2159524,16.0066661 L35.4139371,15.9700665 L21.6821779,15.8857143 L21.6821779,20.5079365 L12.7767695,12.2590476 L16.9553816,8.3784127 L21.6821779,4 L21.6821779,7.88063492 L36.0991183,7.88063492 Z" id="Path-14-Copy-3" fill="#FFD9D4" transform="translate(28.342667, 12.253968) scale(-1, 1) translate(-28.342667, -12.253968) "></path>
                <path d="M30.6689913,3.88063492 L38.4784376,3.88063492 L32.7858254,12.0066661 L29.98381,11.9700665 L16.2520508,11.8857143 L16.2520508,16.5079365 L7.34664247,8.25904762 L11.5252545,4.3784127 L16.2520508,0 L16.2520508,3.88063492 L30.6689913,3.88063492 Z" id="Path-14" fill="#044A75" transform="translate(22.912540, 8.253968) scale(-1, 1) translate(-22.912540, -8.253968) "></path>
                <path d="M23.3223488,22.5473016 L31.1317952,22.5473016 L25.4391829,30.6733328 L22.6371676,30.6367332 L8.90540835,30.552381 L8.90540835,35.1746032 L0,26.9257143 L4.17861205,23.0450794 L8.90540835,18.6666667 L8.90540835,22.5473016 L23.3223488,22.5473016 Z" id="Path-14-Copy" fill="#0092FF" transform="translate(15.565898, 26.920635) scale(1, -1) translate(-15.565898, -26.920635) "></path>
            </g>
        </g>
    </g>
</svg>