<svg xmlns="http://www.w3.org/2000/svg" viewBox="0 0 40 40"><g fill="none" fill-rule="evenodd"><path d="M5 5h31v31H5z"/><circle cx="20" cy="20" r="19.5" stroke="#007EBB"/><path fill="#007EBB" d="M13.81 17.973h2.746v9.572H13.81v-9.572zm1.303-1.197h-.02c-.994 0-1.638-.732-1.638-1.659 0-.945.663-1.662 1.677-1.662 1.013 0 1.636.715 1.656 1.66 0 .926-.643 1.66-1.675 1.66zm12.432 10.77h-3.114V22.59c0-1.296-.487-2.18-1.558-2.18-.82 0-1.275.596-1.487 1.173-.08.205-.067.493-.067.782v5.18h-3.086s.04-8.776 0-9.573h3.086v1.502c.182-.657 1.168-1.594 2.741-1.594 1.952 0 3.485 1.378 3.485 4.341v5.323z"/></g></svg>