<?xml version="1.0" encoding="UTF-8"?> <svg xmlns="http://www.w3.org/2000/svg" xmlns:xlink="http://www.w3.org/1999/xlink" width="48px" height="48px" viewBox="0 0 48 48"><!-- Generator: Sketch 55.2 (78181) - https://sketchapp.com --><title>Sendinblue/Target</title><desc>Created with Sketch.</desc><g id="Sendinblue/Target" stroke="none" stroke-width="1" fill="none" fill-rule="evenodd"><g id="Target"><g transform="translate(3.000000, 6.000000)" fill-rule="nonzero"><ellipse id="Oval" fill="#FFD9D4" cx="17.2981651" cy="18.3678899" rx="14.5" ry="13.5"></ellipse><path d="M2,18.6018349 C2,27.7614679 9.44220184,35.2036697 18.6018348,35.2036697 C26.3082568,35.2036697 32.825688,29.919266 34.6752293,22.7412844 L41.6330275,22.7412844 L37.4495412,18.6018349 L41.5889908,14.4623853 L34.6752293,14.4623853 C32.825688,7.32844037 26.3082568,2 18.6018348,2 C9.44220184,2 2,9.44220184 2,18.6018349 Z M31.372477,16.0036697 L30.5798165,16.7963303 L28.5541284,16.7963303 C27.7174312,12.0844037 23.5779816,8.4733945 18.6018348,8.4733945 C13.0091743,8.4733945 8.4733945,13.0091743 8.4733945,18.6018349 C8.4733945,24.1944954 13.0091743,28.7302752 18.6018348,28.7302752 C23.5779816,28.7302752 27.7174312,25.119266 28.5541284,20.4073394 L30.5798165,20.4073394 L31.372477,21.2 C30.1834862,27.1449541 24.8990825,31.6366972 18.6018348,31.6366972 C11.4238532,31.6366972 5.56697248,25.7798165 5.56697248,18.6018349 C5.56697248,11.4238532 11.4238532,5.56697248 18.6018348,5.56697248 C24.8990825,5.56697248 30.1394495,10.0587156 31.372477,16.0036697 Z M18.6018348,21.8165138 C19.7027523,21.8165138 20.6715596,21.2440367 21.2440367,20.4073394 L24.8990825,20.4073394 C24.106422,23.1376147 21.5963302,25.1633027 18.6018348,25.1633027 C14.9908257,25.1633027 12.0403669,22.212844 12.0403669,18.6018349 C12.0403669,14.9908257 14.9908257,12.040367 18.6018348,12.040367 C21.5963302,12.040367 24.106422,14.066055 24.8990825,16.7963303 L21.2440367,16.7963303 C20.6715596,15.959633 19.7027523,15.387156 18.6018348,15.387156 C16.8403669,15.387156 15.3871559,16.840367 15.3871559,18.6018349 C15.3871559,20.3633027 16.8403669,21.8165138 18.6018348,21.8165138 Z" id="Shape" fill="#FFD9D4"></path><path d="M2.66453526e-13,16.6018349 C2.66453526e-13,25.7614679 7.44220184,33.2036697 16.6018348,33.2036697 C24.3082568,33.2036697 30.825688,27.919266 32.6752293,20.7412844 L39.6330275,20.7412844 L35.4495412,16.6018349 L39.5889908,12.4623853 L32.6752293,12.4623853 C30.825688,5.32844037 24.3082568,1.17239551e-13 16.6018348,1.17239551e-13 C7.44220184,1.17239551e-13 2.66453526e-13,7.44220184 2.66453526e-13,16.6018349 Z M29.372477,14.1400004 L28.5798165,14.8678899 L26.5541284,14.8678899 C25.7174312,10.1559633 21.5779816,6.4733945 16.6018348,6.4733945 C11.0091743,6.4733945 6.4733945,11.0091743 6.4733945,16.6018349 C6.4733945,22.1944954 11.0091743,26.7302752 16.6018348,26.7302752 C21.5779816,26.7302752 25.7174312,23.119266 26.5541284,18.4073394 L28.5798165,18.4073394 L29.372477,19.2 C28.1834862,25.1449541 22.8990825,29.6366972 16.6018348,29.6366972 C9.42385321,29.6366972 3.56697248,23.7798165 3.56697248,16.6018349 C3.56697248,9.42385321 9.42385321,3.56697248 16.6018348,3.56697248 C22.8990825,3.56697248 28.1394495,8.1950463 29.372477,14.1400004 Z M16.6018348,19.8165138 C17.7027523,19.8165138 18.6715596,19.2440367 19.2440367,18.4073394 L22.8990825,18.4073394 C22.106422,21.1376147 19.5963302,23.1633027 16.6018348,23.1633027 C12.9908257,23.1633027 10.0403669,20.212844 10.0403669,16.6018349 C10.0403669,12.9908257 12.9908257,10.040367 16.6018348,10.040367 C19.5963302,10.040367 22.106422,12.1376147 22.8990825,14.8678899 L19.2440367,14.8678899 C18.6715596,14.0311927 17.7027523,13.387156 16.6018348,13.387156 C14.8403669,13.387156 13.3871559,14.840367 13.3871559,16.6018349 C13.3871559,18.3633027 14.8403669,19.8165138 16.6018348,19.8165138 Z" id="Shape" fill="#044A75"></path><circle id="Oval" fill="#0095FF" cx="16.7981651" cy="16.8678897" r="4"></circle><rect id="Rectangle" fill="#0095FF" x="18.7981651" y="14.8678897" width="11" height="4"></rect><polygon id="Path-2" fill="#0095FF" points="28.5798165 14.79633 31.372477 12.3843269 39.6330275 12.3843269 35.4495412 16.6018346 39.902182 20.8678897 31.372477 20.8678897 28.5798165 18.8678897"></polygon></g><g id="Keylines" opacity="0" stroke="#979797" stroke-width="0.125"><g id="Group"><path d="M0,48 L48,0 L0,48 Z" id="NESW"></path><path d="M0,0 L48,48" id="NWSE"></path><path d="M0,31.25 L48,31.25" id="Southern-Tropic" stroke-linecap="square"></path><path d="M0,17.25 L48,17.25" id="Northern-Tropic" stroke-linecap="square"></path><path d="M0,23.25 L48,23.25" id="Equator" stroke-linecap="square"></path><path d="M31,48 L31,0" id="Western-Tropic"></path><path d="M17,48 L17,0" id="Eastern-Tropic"></path><path d="M24,48 L24,0" id="Mean"></path><path d="M34,24 C34,18.47725 29.52275,14 24,14 C18.47725,14 14,18.47725 14,24 C14,29.52275 18.47725,34 24,34 C29.52275,34 34,29.52275 34,24 L34,24 Z" id="Core"></path><path d="M24,46 C11.84975,46 2,36.15025 2,24 C2,11.84975 11.84975,2 24,2 C36.15025,2 46,11.84975 46,24 C46,36.15025 36.15025,46 24,46" id="Circle"></path><path d="M40,43 L8,43 C6.35,43 5,41.65 5,40 L5,8 C5,6.35 6.35,5 8,5 L40,5 C41.65,5 43,6.35 43,8 L43,40 C43,41.65 41.65,43 40,43" id="Square"></path><path d="M37,46 L11,46 C9.35,46 8,44.65 8,43 L8,5 C8,3.35 9.35,2 11,2 L37,2 C38.65,2 40,3.35 40,5 L40,43 C40,44.65 38.65,46 37,46" id="Vertical-Rectangle"></path><path d="M43,40 L5,40 C3.35,40 2,38.65 2,37 L2,11 C2,9.35 3.35,8 5,8 L43,8 C44.65,8 46,9.35 46,11 L46,37 C46,38.65 44.65,40 43,40" id="Horizontal-Rectangle"></path></g></g></g></g></svg> 